# xmcd
#
# Track frame offsets: 
#        150
#        12370
#        35820
#        48855
#        62739
#        77444
#        91531
#        104778
#        127210
#        140155
#        154102
#        164984
#        187153
#        198533
#        211985
#        226415
#        239037
#        263921
#
# Disc length: 3746 seconds
#
# Revision: 3
# Processed by: cddbd v1.5.2PL0 Copyright (c) Steve Scherf et al.
# Submitted via: ExactAudioCopyFreeDBPlugin 1.0
#
DISCID=120ea012
DTITLE=Charlie Parker - The Kings Of Jazz - Charlie Parker
DYEAR=1900
DGENRE=Jazz
TTITLE0=Bird's Nest
TTITLE1=How High The Moon
TTITLE2=Ko Ko
TTITLE3=Moose The Mooch
TTITLE4=Lover Man
TTITLE5=Klact-Oveeseds-Tene
TTITLE6=Quasimodo
TTITLE7=Cool Blues
TTITLE8=Stupendous
TTITLE9=Red Cross
TTITLE10=Donna Lee
TTITLE11=Move
TTITLE12=Street Beat
TTITLE13=Relaxin' In Carmarillo
TTITLE14=Bird Of Paradise
TTITLE15=Carvin' The Bird
TTITLE16=Confirmations
TTITLE17=Congo Blues
EXTD=
EXTT0=
EXTT1=
EXTT2=
EXTT3=
EXTT4=
EXTT5=
EXTT6=
EXTT7=
EXTT8=
EXTT9=
EXTT10=
EXTT11=
EXTT12=
EXTT13=
EXTT14=
EXTT15=
EXTT16=
EXTT17=
PLAYORDER=
